HIERARCHY
ROOT Hips
{
	OFFSET 0.00000 0.00000 0.00000
	CHANNELS 6 Xposition Yposition Zposition Zrotation Yrotation Xrotation 
	JOINT LHipJoint
	{
		OFFSET 0 0 0
		CHANNELS 3 Zrotation Yrotation Xrotation
		JOINT LeftUpLeg
		{
			OFFSET 1.57358 -1.76629 0.73362
			CHANNELS 3 Zrotation Yrotation Xrotation
			JOINT LeftLeg
			{
				OFFSET 2.40600 -6.61045 0.00000
				CHANNELS 3 Zrotation Yrotation Xrotation
				JOINT LeftFoot
				{
					OFFSET 2.66168 -7.31291 0.00000
					CHANNELS 3 Zrotation Yrotation Xrotation
					JOINT LeftToeBase
					{
						OFFSET 0.20870 -0.57341 2.12506
						CHANNELS 3 Zrotation Yrotation Xrotation
						End Site
						{
							OFFSET 0.00000 -0.00000 1.10557
						}
					}
				}
			}
		}
	}
	JOINT RHipJoint
	{
		OFFSET 0 0 0
		CHANNELS 3 Zrotation Yrotation Xrotation
		JOINT RightUpLeg
		{
			OFFSET -1.49299 -1.76629 0.73362
			CHANNELS 3 Zrotation Yrotation Xrotation
			JOINT RightLeg
			{
				OFFSET -2.43663 -6.69460 0.00000
				CHANNELS 3 Zrotation Yrotation Xrotation
				JOINT RightFoot
				{
					OFFSET -2.62959 -7.22474 0.00000
					CHANNELS 3 Zrotation Yrotation Xrotation
					JOINT RightToeBase
					{
						OFFSET -0.25784 -0.70841 2.21862
						CHANNELS 3 Zrotation Yrotation Xrotation
						End Site
						{
							OFFSET -0.00000 -0.00000 1.16452
						}
					}
				}
			}
		}
	}
	JOINT LowerBack
	{
		OFFSET 0 0 0
		CHANNELS 3 Zrotation Yrotation Xrotation
		JOINT Spine
		{
			OFFSET -0.00034 2.12399 -0.25450
			CHANNELS 3 Zrotation Yrotation Xrotation
			JOINT Spine1
			{
				OFFSET 0.05594 2.14379 -0.03318
				CHANNELS 3 Zrotation Yrotation Xrotation
				JOINT Neck
				{
					OFFSET 0 0 0
					CHANNELS 3 Zrotation Yrotation Xrotation
					JOINT Neck1
					{
						OFFSET -0.09835 1.62725 0.24211
						CHANNELS 3 Zrotation Yrotation Xrotation
						JOINT Head
						{
							OFFSET 0.10849 1.66041 -0.22648
							CHANNELS 3 Zrotation Yrotation Xrotation
							End Site
							{
								OFFSET 0.04385 1.68267 -0.10541
							}
						}
					}
				}
				JOINT LeftShoulder
				{
					OFFSET 0 0 0
					CHANNELS 3 Zrotation Yrotation Xrotation
					JOINT LeftArm
					{
						OFFSET 3.29108 0.79398 -0.68179
						CHANNELS 3 Zrotation Yrotation Xrotation
						JOINT LeftForeArm
						{
							OFFSET 5.15310 -0.00000 -0.00000
							CHANNELS 3 Zrotation Yrotation Xrotation
							JOINT LeftHand
							{
								OFFSET 3.75138 -0.00000 -0.00000
								CHANNELS 3 Zrotation Yrotation Xrotation
								JOINT LeftFingerBase
								{
									OFFSET 0 0 0
									CHANNELS 3 Zrotation Yrotation Xrotation
									JOINT LeftHandIndex1
									{
										OFFSET 0.52917 -0.00000 0.00000
										CHANNELS 3 Zrotation Yrotation Xrotation
										End Site
										{
											OFFSET 0.42663 -0.00000 0.00000
										}
									}
								}
								JOINT LThumb
								{
									OFFSET 0 0 0
									CHANNELS 3 Zrotation Yrotation Xrotation
									End Site
									{
										OFFSET 0.43315 -0.00000 0.43315
									}
								}
							}
						}
					}
				}
				JOINT RightShoulder
				{
					OFFSET 0 0 0
					CHANNELS 3 Zrotation Yrotation Xrotation
					JOINT RightArm
					{
						OFFSET -3.07414 1.06285 -0.44338
						CHANNELS 3 Zrotation Yrotation Xrotation
						JOINT RightForeArm
						{
							OFFSET -5.29613 -0.00000 0.00000
							CHANNELS 3 Zrotation Yrotation Xrotation
							JOINT RightHand
							{
								OFFSET -3.76144 -0.00000 -0.00000
								CHANNELS 3 Zrotation Yrotation Xrotation
								JOINT RightFingerBase
								{
									OFFSET 0 0 0
									CHANNELS 3 Zrotation Yrotation Xrotation
									JOINT RightHandIndex1
									{
										OFFSET -0.74732 -0.00000 0.00000
										CHANNELS 3 Zrotation Yrotation Xrotation
										End Site
										{
											OFFSET -0.60251 -0.00000 0.00000
										}
									}
								}
								JOINT RThumb
								{
									OFFSET 0 0 0
									CHANNELS 3 Zrotation Yrotation Xrotation
									End Site
									{
										OFFSET -0.61171 -0.00000 0.61171
									}
								}
							}
						}
					}
				}
			}
		}
	}
}
MOTION
Frames: 13
Frame Time: 0.153846
0.00 0.00 0.00 0 0 0 0 0 0 -21 0 0 0 0 0 0 0 0 0 0 0 0 0 0 21 0 0 0 0 0 0 0 0 0 0 0 0 0 0 0 0 0 0 0 0 0 0 -16 0 0 21 0 0 11 0 0 0 -8 0 0 0 0 0 0 0 0 0 0 0 0 0 0 0 0 0 0 0 0 8 0 0 0 0 0 0 0 0 0 0 0 0 0 0 0 0 0
0.00 0.00 0.00 5.1842 -2.5517 1.2157 0.0000 0.0000 0.0000 -28.8016 2.0732 9.0821 2.4336 9.7162 28.0625 -0.1589 -7.3835 0.3554 2.1158 -9.1032 -26.1188 0.0000 0.0000 0.0000 16.8863 10.9962 -26.0541 -1.8702 -8.5903 24.5219 0.0288 -3.1866 -0.0387 -0.2023 -2.8960 7.9892 -11.6234 -1.6511 9.2585 5.8173 -3.2691 -3.6890 13.6751 -0.7617 -8.2892 -13.6968 -0.4173 -10.0387 2.0592 1.5199 21.0166 3.1074 -0.1625 8.1122 0.0000 0.0000 0.0000 -96.7095 1.6397 8.6847 15.7555 -25.1880 -3.5413 -0.0000 -0.0000 10.3600 18.2217 22.6197 7.2161 -7.1250 0.0000 -0.0000 -11.2076 53.3178 -2.3158 0.0000 0.0000 0.0000 79.8588 -10.8683 9.9342 -12.3250 20.2903 -2.2137 0.0000 0.0000 13.2029 -13.9307 15.0047 -3.6744 7.1250 -0.0000 -0.0000 9.2206 -14.6797 6.6714
0.00 0.00 0.00 3.0896 -4.6935 0.6077 0.0000 0.0000 0.0000 -24.6509 3.0841 2.3293 4.8507 13.2137 40.1738 0.3773 -7.6907 16.8851 0.6129 -5.0107 -13.9391 0.0000 0.0000 0.0000 20.7071 12.3804 -20.5903 -1.8216 -8.4841 24.1944 0.0345 -3.3367 -1.7957 -0.4077 -4.0990 11.3554 -8.0319 -1.3876 5.4352 4.7530 -2.2392 -1.7059 9.8235 -0.8220 -4.3625 -13.1041 -0.3160 -8.2398 3.7887 0.8899 19.2497 3.4892 -0.1847 7.2125 0.0000 0.0000 0.0000 -94.2620 0.5796 9.7364 14.5327 -23.4911 -3.0372 -0.0000 -0.0000 9.4561 18.3533 21.7856 7.0192 -7.1250 0.0000 -0.0000 -10.7426 52.4994 -2.0015 0.0000 0.0000 0.0000 82.8124 -8.0252 9.9877 -12.3514 20.3295 -2.2229 0.0000 0.0000 12.2908 -14.1128 15.7509 -3.9043 7.1250 -0.0000 -0.0000 9.1014 -13.9093 6.7338
0.00 0.00 0.00 0.2437 1.0623 -0.9695 0.0000 0.0000 0.0000 -18.9171 -3.7425 -6.9251 9.4295 17.0763 57.5639 0.7364 -6.3315 19.7242 0.1806 -2.7376 -7.5490 0.0000 0.0000 0.0000 25.0003 5.7065 -11.9099 -1.2445 -7.0733 19.9326 0.0183 -4.9222 -6.3630 -0.5167 -4.6074 12.7920 -4.9192 -3.3756 7.1756 5.6041 -4.6857 -1.9022 9.2593 -2.0787 -5.1605 -13.6490 0.2036 -6.9801 4.0033 1.4503 19.0635 3.6773 0.0656 6.8744 0.0000 -0.0000 0.0000 -95.7970 3.3282 11.1229 14.1040 -22.8832 -2.8684 -0.0000 -0.0000 13.1663 19.7766 23.6626 8.2116 -7.1250 0.0000 -0.0000 -10.0659 54.6670 -2.4087 0.0000 -0.0000 0.0000 81.1351 -6.9527 16.8427 -13.5692 22.1155 -2.6638 0.0000 0.0000 8.9678 -15.3521 11.9962 -3.2660 7.1250 -0.0000 -0.0000 8.2537 -17.6305 5.4230
0.00 0.00 0.00 -1.0297 -0.5412 -1.4215 0.0000 0.0000 0.0000 -16.0538 -5.2813 -16.8997 11.0582 17.9634 62.9704 -0.0123 -3.7829 4.8156 0.1230 -2.2611 -6.2278 0.0000 0.0000 0.0000 27.3655 3.4490 -5.3214 -0.9430 -6.1849 17.3219 -0.1165 -3.3489 -8.5710 -0.0738 -1.7520 4.8208 -2.4569 -1.6056 6.6981 4.6378 -2.1402 -0.9474 6.4701 -0.9413 -4.4818 -12.6728 -1.3144 -7.8601 4.5302 -0.7427 19.8797 3.5398 -0.8922 7.4874 -0.0000 0.0000 0.0000 -95.0186 3.7863 14.1021 13.9236 -22.6254 -2.7986 -0.0000 -0.0000 10.7651 19.5742 21.4785 7.4179 -7.1250 0.0000 -0.0000 -9.4113 52.4037 -1.7275 -0.0000 0.0000 0.0000 82.2654 -4.0114 18.8202 -15.5083 24.8494 -3.4367 0.0000 0.0000 7.3962 -14.8219 8.3623 -2.2039 7.1250 -0.0000 -0.0000 8.7011 -21.3733 4.9883
0.00 0.00 0.00 -2.7660 -4.1850 -0.7463 0.0000 0.0000 0.0000 -13.1432 -8.3004 -26.2645 6.6051 14.9901 47.3644 0.1670 3.5418 -9.8593 0.1378 -2.3924 -6.5916 0.0000 0.0000 0.0000 29.4578 2.0610 0.6602 -1.0997 -6.6634 18.7219 -0.5971 -1.0741 -15.0243 -0.0635 -1.6263 4.4738 0.1527 -0.2528 7.0700 4.4510 -0.1129 -0.8605 4.5749 0.0019 -4.8615 -12.1523 -1.1243 -8.3571 4.7551 -0.5295 18.6303 3.5269 -0.6890 7.1384 -0.0000 -0.0000 0.0000 -96.2855 6.1171 14.5101 13.6133 -22.1791 -2.6804 -0.0000 -0.0000 10.4581 19.6210 20.3966 7.0824 -7.1250 0.0000 -0.0000 -8.9851 51.3037 -1.4048 -0.0000 -0.0000 0.0000 80.8441 0.0843 25.5741 -18.8966 29.2900 -4.9801 0.0000 0.0000 3.8946 -13.9628 9.3251 -2.3071 7.1250 -0.0000 -0.0000 9.2851 -20.4334 5.5314
0.00 0.00 0.00 -3.0674 -3.3789 0.5291 0.0000 0.0000 0.0000 -12.0604 -11.9666 -27.0191 2.9489 10.6119 30.9818 0.1520 4.5016 -10.3968 0.1306 -2.3297 -6.4177 0.0000 0.0000 0.0000 29.9685 0.7688 3.3195 -0.9416 -6.1804 17.3088 -0.6849 -2.8844 -16.9402 -0.0066 -0.5256 1.4441 0.6973 -0.0067 7.1365 4.0462 0.2608 -1.1934 3.8017 0.1723 -5.2712 -11.3857 -1.7113 -9.5118 5.1071 -1.3812 18.5484 3.4426 -0.9989 7.3829 -0.0000 0.0000 0.0000 -96.0983 5.6276 14.0695 12.1276 -19.9958 -2.1457 -0.0000 -0.0000 12.5467 19.8423 20.3757 7.1612 -7.1250 0.0000 -0.0000 -8.7601 51.3196 -1.3726 -0.0000 0.0000 0.0000 81.0353 1.9208 25.7070 -20.3616 31.0755 -5.7168 0.0000 0.0000 2.9173 -13.9389 9.2272 -2.2791 7.1250 -0.0000 -0.0000 9.3054 -20.5340 5.5225
0.00 0.00 0.00 -0.1314 -6.2672 -0.6408 0.0000 0.0000 0.0000 -19.3882 -9.5133 -19.7204 1.4134 7.5191 21.2628 -0.0165 -2.3674 0.1682 0.0093 -0.6216 -1.7081 0.0000 0.0000 0.0000 23.3299 0.1678 5.6935 -4.5610 -12.8716 38.8898 0.0048 -1.9773 -2.3699 -0.2768 3.3840 -9.3496 -0.2600 1.9767 5.7333 1.7578 2.6767 -0.1017 1.7273 1.3503 -3.4149 -9.1227 -3.8090 -15.7059 5.8965 -4.4188 22.7933 3.0222 -2.1554 10.2078 -0.0000 0.0000 0.0000 -92.9311 3.3991 12.6110 9.3533 -15.7216 -1.2942 -0.0000 -0.0000 17.7045 15.8397 28.9600 7.8221 -7.1250 0.0000 -0.0000 -17.0499 59.0698 -5.9702 -0.0000 0.0000 0.0000 85.7063 2.4256 13.8865 -17.7758 27.8691 -4.4439 0.0000 0.0000 7.2103 -15.0724 9.4560 -2.5333 7.1250 -0.0000 -0.0000 8.4902 -20.2439 5.0834
0.00 0.00 0.00 1.6638 -7.0170 -1.7224 0.0000 0.0000 0.0000 -22.9403 -6.9440 -15.3854 1.3365 7.3201 20.6673 -0.0268 -3.7154 -1.1130 0.0000 0.0401 0.1101 0.0000 0.0000 0.0000 19.8043 1.6062 -2.5577 -8.5418 -16.5037 54.4917 -0.5459 -5.4251 13.1662 -0.8931 -6.0235 16.8525 -1.6710 1.9917 6.6007 1.1600 2.5682 0.3001 1.8891 1.3120 -3.5168 -9.0200 -3.5605 -16.7890 6.2400 -4.0898 22.9153 3.1700 -1.9392 10.4336 0.0000 0.0000 0.0000 -91.9707 2.6905 13.7611 10.0458 -16.8112 -1.4882 -0.0000 -0.0000 16.0834 13.1519 30.3402 6.7315 -7.1250 0.0000 -0.0000 -20.8809 59.7563 -7.7252 0.0000 0.0000 0.0000 87.1956 1.6977 10.1758 -16.3337 25.9710 -3.7909 0.0000 0.0000 8.4828 -13.1665 10.3697 -2.4111 7.1250 -0.0000 -0.0000 9.8162 -19.4164 6.0840
0.00 0.00 0.00 4.8124 -5.0430 -2.2947 0.0000 0.0000 0.0000 -28.8530 -2.6656 -7.6589 1.3590 7.3790 20.8432 0.1385 -7.5372 -7.9277 0.0403 1.2950 3.5608 0.0000 0.0000 0.0000 14.1856 3.1253 -24.0254 -13.5092 -18.9584 70.6997 0.0626 -4.6995 -0.0492 -0.4667 -4.3817 12.1532 -4.7811 0.2577 7.0942 0.8720 -0.0031 0.6959 3.5946 0.0675 -3.2598 -9.3741 -2.9867 -17.0249 5.6178 -2.9694 22.0252 3.1462 -1.5150 10.0578 -0.0000 0.0000 0.0000 -89.4348 -1.7188 15.9171 11.3231 -18.7819 -1.8786 -0.0000 -0.0000 14.9627 14.0033 30.8491 7.2875 -7.1250 0.0000 -0.0000 -20.3798 60.4285 -7.8589 -0.0000 0.0000 0.0000 87.9547 0.0492 6.1336 -13.2738 21.6871 -2.5536 0.0000 0.0000 13.9716 -13.5235 13.6682 -3.2528 7.1250 -0.0000 -0.0000 9.5020 -16.0624 6.5944
0.00 0.00 0.00 -52.6930 75.2435 -46.8183 0.0000 0.0000 0.0000 -12.0037 -10.8289 -33.4473 2.0938 9.0587 25.9791 0.7596 5.2444 -19.1878 0.0031 -0.3604 -0.9903 0.0000 0.0000 0.0000 34.3850 -2.4839 12.5767 -0.0406 -1.2998 3.5741 -0.0561 1.0627 -4.2267 -0.0052 0.4645 -1.2764 10.4362 0.8744 7.2050 4.8435 2.3796 0.2530 -1.0225 1.1131 -3.5953 -7.9184 -4.0552 -15.8929 3.8326 -4.2793 23.4707 2.1225 -2.1262 10.4080 -0.0000 -0.0000 0.0000 -86.5502 4.1014 19.0517 15.9623 -25.4695 -3.6297 -0.0000 0.0000 -2.0165 19.1444 23.8125 7.9786 -7.1250 0.0000 -0.0000 -10.7785 54.6954 -2.5896 -0.0000 -0.0000 0.0000 83.7516 -2.0216 19.0905 -20.7568 31.5433 -5.9222 0.0000 -0.0000 -1.7594 -16.8900 9.3815 -2.8335 7.1250 -0.0000 -0.0000 7.1938 -20.2203 4.2976
0.00 0.00 0.00 40.6000 84.6107 43.2216 0.0000 0.0000 0.0000 -31.5672 -6.1514 -8.4921 2.1825 9.2362 26.5371 0.7431 -7.0066 -15.4210 0.4042 4.0818 11.3070 0.0000 0.0000 0.0000 11.3178 9.9935 -28.7278 -8.8090 -16.6832 55.4272 -0.6227 3.9839 -14.0864 -0.1132 -2.1696 5.9746 -3.0921 0.7088 7.6337 0.7789 0.7106 -0.0857 2.4673 0.4321 -4.4219 -8.8592 -3.8961 -16.4774 3.5707 -3.6460 24.4378 2.2808 -1.9441 10.8566 0.0000 -0.0000 0.0000 -93.0572 4.5185 17.1617 15.2023 -24.4271 -3.3091 -0.0000 -0.0000 6.1407 19.5776 23.3898 8.0362 -7.1250 0.0000 -0.0000 -10.1549 54.3514 -2.3519 0.0000 -0.0000 0.0000 88.7093 -2.8334 14.9920 -17.5974 27.6386 -4.3609 0.0000 0.0000 4.3915 -14.9140 9.9200 -2.6271 7.1250 -0.0000 -0.0000 8.5919 -19.7786 5.2363
0.00 0.00 0.00 43.1113 84.9855 45.7002 0.0000 0.0000 0.0000 -30.9209 -3.3146 -4.1638 1.7067 8.2263 23.4037 0.8383 -8.1597 -16.4590 0.2610 3.2866 9.0776 0.0000 0.0000 0.0000 10.9989 12.4852 -29.7754 -4.6786 -13.0124 39.4149 -0.5184 1.6035 -13.1423 -0.2340 -3.1134 8.5946 -4.2470 0.6251 7.8935 0.9786 0.4938 -0.0974 3.3521 0.3566 -4.5799 -8.8464 -4.1332 -17.0037 3.8351 -4.0319 24.0306 2.3062 -2.0880 10.8388 0.0000 -0.0000 0.0000 -91.7101 2.8539 20.6886 18.7008 -29.0452 -4.8847 -0.0000 -0.0000 4.2019 17.8876 22.6258 7.0780 -7.1250 0.0000 -0.0000 -11.5448 53.2626 -2.3713 0.0000 -0.0000 0.0000 88.9324 -2.6310 13.0625 -16.4758 26.1615 -3.8533 0.0000 0.0000 8.5689 -13.8035 10.8229 -2.6414 7.1250 -0.0000 -0.0000 9.3551 -18.9230 5.8945
